<?xml version="1.0" encoding="iso-8859-1"?>
<!-- Generator: Adobe Illustrator 16.0.0, SVG Export Plug-In . SVG Version: 6.00 Build 0)  -->
<!DOCTYPE svg PUBLIC "-//W3C//DTD SVG 1.1//EN" "http://www.w3.org/Graphics/SVG/1.1/DTD/svg11.dtd">
<svg version="1.1" id="Capa_1" xmlns="http://www.w3.org/2000/svg" xmlns:xlink="http://www.w3.org/1999/xlink" x="0px" y="0px"
	 width="289.841px" height="289.841px" viewBox="0 0 289.841 289.841" style="enable-background:new 0 0 289.841 289.841;"
	 xml:space="preserve">
<g>
	<path d="M281.814,143.026c5.085,7.558,0.26,22.754,8.026,30.268c-2.681-9.653,3.222-34.6-4.821-54.713
		c-2.896-7.243-8.495-13.864-15.216-19.304c-5.959-4.837-12.595-6.005-19.115-8.582c-6.517-2.587-12.908-6.608-17.692-6.176
		c-15.024,1.351-20.395,7.522-43.177,6.705c-22.798-0.801-31.646-12.868-46.394-12.591c-14.741,0.272-48.532,12.062-56.846,12.062
		c-8.321,0-0.81-4.3-4.554-7.785c-3.749-3.484-12.599-3.462-15.551-1.859c-2.952,1.607,4.829,12.323,4.829,12.323
		s-13.409,15.763-19.58,15.507c-6.171-0.276-10.455-1.565-11.445-9.047c-4.48,6.995-5.178,16.062-5.178,16.062
		S16.076,116.972,0,101.16c2.142,17.437,20.526,26.417,24.391,28.688c-6.712,15.07,2.771,19.679,2.771,19.679
		s-0.353,5.266,6.344,2.853c4.577-1.646,30.833-1.334,36.243-5.75c5.408-4.4,7.727-4.981,14.972-5.517
		c3.484-0.252,5.033,6.482,12.6,9.38c8.165,3.113,14.751-2.682,19.035,1.879c4.29,4.537,0.465,11.201,8.584,18.768
		c8.115,7.582,4.561,8.68,7.237,15.833c2.675,7.129-1.028,13.092-1.028,13.092s-8.089,4.071-11.086,11.149h32.75
		c0,0,1.078-6.272-4.018-12.973c1.875-10.988,2.519-36.668,2.519-36.668s22.956,15.753,45.222,14.896
		c22.261-0.846,30.833-11.485,30.833-11.485s2.408,8.588,1.611,15.541c-0.813,6.977-5.903,17.164-5.903,17.164
		s-10.183,7.498-10.459,13.525l36.539-0.502c0,0-5.169-7.097-3.559-15.424C247.21,186.972,276.7,160.959,281.814,143.026z
		 M53.208,126.636c-2.591,0-4.693-1.625-4.693-3.619c0-2.008,2.102-3.635,4.693-3.635s4.695,1.627,4.695,3.635
		C57.911,125.011,55.799,126.636,53.208,126.636z"/>
</g>
<g>
</g>
<g>
</g>
<g>
</g>
<g>
</g>
<g>
</g>
<g>
</g>
<g>
</g>
<g>
</g>
<g>
</g>
<g>
</g>
<g>
</g>
<g>
</g>
<g>
</g>
<g>
</g>
<g>
</g>
</svg>
